:FULLY-SPECIFIED
:FORCE-ALL-JOINTS-BE-3DOF
:DEGREES
747
root 4.01254 17.3023 14.3144 -163.871 -6.29059 -171.124
lfemur -30.5755 3.6187 -12.3203
ltibia 39.0646 -0 0
lfoot -13.0308 -0.250326 -2.54844
ltoes 15.4725 -0 0
rfemur -25.0197 -30.5487 7.78638
rtibia 105.731 -0 0
rfoot 23.0671 -0.186192 0.600011
rtoes 27.9626 -0 0
lowerback 2.10958 6.2775 -1.48156
upperback -1.54769 8.33189 -2.5742
thorax -2.55956 4.18282 -2.14814
lowerneck -6.59854 -8.37028 -1.70514
upperneck -1.65396 -11.065 4.89217
head 0.983253 -5.4524 1.47516
lclavicle -3.02153e-14 -9.54166e-15 0
lhumerus -52.4812 -14.2484 69.6217
lradius 55.3425 -0 0
lwrist 16.2614 0 0
lhand -25.9715 -6.2815 0.0667682
lfingers 7.12502 -0 0
lthumb 0.573196 23.6657 0.0640647
rclavicle -3.02153e-14 -9.54166e-15 0
rhumerus 19.5119 37.2357 -63.6343
rradius 88.7844 -0 0
rwrist -0.614989 0 0
rhand -23.302 -24.0206 0.35954
rfingers 7.12502 -0 0
rthumb 3.1503 -53.893 0.351368
748
root 3.96186 17.1604 14.5004 -163.852 -3.80453 -171.154
lfemur -31.6355 5.31918 -13.3691
ltibia 41.218 -0 0
lfoot -15.1075 1.04974 -2.50134
ltoes 15.137 -0 0
rfemur -24.8905 -30.7094 9.22515
rtibia 103.877 -0 0
rfoot 22.1873 -0.89909 0.589063
rtoes 27.7684 -0 0
lowerback 2.29048 6.1912 -1.75139
upperback -1.43652 8.20884 -2.68535
thorax -2.57049 4.12767 -2.12609
lowerneck -6.46325 -8.44276 -1.73751
upperneck -1.64914 -11.1511 5.05185
head 0.977453 -5.4881 1.53225
lclavicle -3.02153e-14 -9.54166e-15 0
lhumerus -52.2888 -13.8833 71.6984
lradius 55.9366 -0 0
lwrist 15.8725 0 0
lhand -26.3348 -6.47301 0.0655536
lfingers 7.12502 -0 0
lthumb 0.222281 23.4755 0.0628994
rclavicle -3.02153e-14 -9.54166e-15 0
rhumerus 17.432 39.4126 -66.2115
rradius 88.5953 -0 0
rwrist 0.0537332 0 0
rhand -22.713 -23.3833 0.35299
rfingers 7.12502 -0 0
rthumb 3.71901 -53.2481 0.344967
749
root 3.91118 17.0185 14.6865 -163.835 -1.31847 -171.183
lfemur -32.73 6.9997 -14.4527
ltibia 43.3714 -0 0
lfoot -17.1825 2.34718 -2.40721
ltoes 14.8016 -0 0
rfemur -24.7657 -30.8729 10.6659
rtibia 102.023 -0 0
rfoot 21.3077 -1.61174 0.567172
rtoes 27.5743 -0 0
lowerback 2.47177 6.10576 -2.02145
upperback -1.32515 8.086 -2.79671
thorax -2.58144 4.07252 -2.10402
lowerneck -6.3279 -8.51516 -1.77006
upperneck -1.64456 -11.2373 5.21156
head 0.971617 -5.52379 1.58935
lclavicle -3.02153e-14 -9.54166e-15 0
lhumerus -52.0832 -13.5251 73.7732
lradius 56.5307 -0 0
lwrist 15.4836 0 0
lhand -26.6982 -6.66451 0.0631246
lfingers 7.12502 -0 0
lthumb -0.128628 23.2852 0.0605688
rclavicle -3.02153e-14 -9.54166e-15 0
rhumerus 15.1564 41.5113 -68.9757
rradius 88.4062 -0 0
rwrist 0.722455 0 0
rhand -22.1242 -22.7462 0.33989
rfingers 7.12502 -0 0
rthumb 4.2876 -52.6033 0.332165
750
root 3.86051 16.8766 14.8725 -163.819 1.16761 -171.212
lfemur -33.8609 8.65899 -15.5729
ltibia 45.5248 -0 0
lfoot -19.2547 3.64025 -2.26625
ltoes 14.4661 -0 0
rfemur -24.6456 -31.0391 12.1088
rtibia 100.169 -0 0
rfoot 20.4285 -2.32396 0.534346
rtoes 27.3801 -0 0
lowerback 2.65342 6.02116 -2.29173
upperback -1.21358 7.96337 -2.90828
thorax -2.59242 4.01738 -2.08195
lowerneck -6.19248 -8.58749 -1.80279
upperneck -1.64022 -11.3234 5.37131
head 0.965745 -5.55947 1.64646
lclavicle -3.02153e-14 -9.54166e-15 0
lhumerus -51.8648 -13.1745 75.8462
lradius 57.1248 -0 0
lwrist 15.0946 0 0
lhand -27.0615 -6.856 0.0594813
lfingers 7.12502 -0 0
lthumb -0.479528 23.095 0.0570731
rclavicle -3.02153e-14 -9.54166e-15 0
rhumerus 12.6681 43.5207 -71.9449
rradius 88.2171 -0 0
rwrist 1.39118 0 0
rhand -21.5356 -22.1092 0.320244
rfingers 7.12502 -0 0
rthumb 4.85602 -51.9587 0.312966
751
root 3.80983 16.7347 15.0586 -163.804 3.65369 -171.24
lfemur -35.03 10.2957 -16.7315
ltibia 47.6782 -0 0
lfoot -21.3229 4.92723 -2.0787
ltoes 14.1306 -0 0
rfemur -24.5302 -31.2078 13.5537
rtibia 98.3153 -0 0
rfoot 19.5497 -3.03559 0.490598
rtoes 27.1859 -0 0
lowerback 2.83545 5.93742 -2.56224
upperback -1.10179 7.84097 -3.02005
thorax -2.60341 3.96224 -2.05986
lowerneck -6.05699 -8.65974 -1.8357
upperneck -1.63613 -11.4096 5.53111
head 0.959837 -5.59515 1.70358
lclavicle -3.02153e-14 -9.54166e-15 0
lhumerus -51.6337 -12.8317 77.9177
lradius 57.7189 -0 0
lwrist 14.7057 0 0
lhand -27.4248 -7.04745 0.0546238
lfingers 7.12502 -0 0
lthumb -0.830414 22.9047 0.0524124
rclavicle -3.02153e-14 -9.54166e-15 0
rhumerus 9.95004 45.4288 -75.1367
rradius 88.028 -0 0
rwrist 2.0599 0 0
rhand -20.9472 -21.4724 0.294057
rfingers 7.12502 -0 0
rthumb 5.42418 -51.3143 0.287375
752
root 3.75915 16.5928 15.2446 -163.79 6.13978 -171.267
lfemur -36.2391 11.9083 -17.9306
ltibia 49.8316 -0 0
lfoot -23.3862 6.20644 -1.84492
ltoes 13.7952 -0 0
rfemur -24.4196 -31.3789 15.0009
rtibia 96.4614 -0 0
rfoot 18.6715 -3.74645 0.435945
rtoes 26.9918 -0 0
lowerback 3.01784 5.85453 -2.83298
upperback -0.9898 7.71877 -3.13203
thorax -2.61443 3.90711 -2.03777
lowerneck -5.92144 -8.73191 -1.86879
upperneck -1.63228 -11.4958 5.69095
head 0.953893 -5.63082 1.7607
lclavicle -3.02153e-14 -9.54166e-15 0
lhumerus -51.3904 -12.4973 79.9878
lradius 58.313 -0 0
lwrist 14.3168 0 0
lhand -27.7881 -7.23887 0.0485524
lfingers 7.12502 -0 0
lthumb -1.18128 22.7146 0.0465869
rclavicle -3.02153e-14 -9.54166e-15 0
rhumerus 6.98655 47.2217 -78.5678
rradius 87.839 -0 0
rwrist 2.72862 0 0
rhand -20.3592 -20.836 0.261334
rfingers 7.12502 -0 0
rthumb 5.99202 -50.6701 0.255396
753
root 3.70847 16.4509 15.4307 -163.778 8.62587 -171.294
lfemur -37.4903 13.4953 -19.1718
ltibia 51.985 -0 0
lfoot -25.4434 7.47624 -1.56532
ltoes 13.4597 -0 0
rfemur -24.3139 -31.5524 16.4504
rtibia 94.6075 -0 0
rfoot 17.7941 -4.4564 0.370409
rtoes 26.7976 -0 0
lowerback 3.2006 5.7725 -3.10394
upperback -0.877598 7.5968 -3.24422
thorax -2.62546 3.85198 -2.01567
lowerneck -5.78581 -8.80401 -1.90206
upperneck -1.62867 -11.582 5.85083
head 0.947913 -5.66649 1.81783
lclavicle -3.02153e-14 -9.54166e-15 0
lhumerus -51.1353 -12.1717 82.0568
lradius 58.9071 -0 0
lwrist 13.9279 0 0
lhand -28.1514 -7.43025 0.0412674
lfingers 7.12502 -0 0
lthumb -1.53213 22.5244 0.0395969
rclavicle -3.02153e-14 -9.54166e-15 0
rhumerus 3.76445 48.8842 -82.2519
rradius 87.6499 -0 0
rwrist 3.39734 0 0
rhand -19.7715 -20.1999 0.222083
rfingers 7.12502 -0 0
rthumb 6.55946 -50.0264 0.217038
754
root 3.65779 16.3091 15.6167 -163.766 11.112 -171.32
lfemur -38.7856 15.055 -20.4574
ltibia 54.1384 -0 0
lfoot -27.4937 8.73501 -1.24042
ltoes 13.1243 -0 0
rfemur -24.2132 -31.7281 17.9022
rtibia 92.7535 -0 0
rfoot 16.9176 -5.16525 0.294015
rtoes 26.6034 -0 0
lowerback 3.38373 5.69134 -3.37513
upperback -0.765188 7.47504 -3.35662
thorax -2.63652 3.79685 -1.99356
lowerneck -5.65012 -8.87603 -1.93551
upperneck -1.62531 -11.6682 6.01075
head 0.941897 -5.70215 1.87497
lclavicle -3.02153e-14 -9.54166e-15 0
lhumerus -50.8686 -11.8553 84.1247
lradius 59.5012 -0 0
lwrist 13.539 0 0
lhand -28.5146 -7.62158 0.0327692
lfingers 7.12502 -0 0
lthumb -1.88295 22.3343 0.0314428
rclavicle -3.02153e-14 -9.54166e-15 0
rhumerus 0.274943 50.3998 -86.1987
rradius 87.4608 -0 0
rwrist 4.06606 0 0
rhand -19.1844 -19.5642 0.176313
rfingers 7.12502 -0 0
rthumb 7.12644 -49.383 0.172309
